<svg width="32" height="32" viewBox="0 0 32 32" fill="none" xmlns="http://www.w3.org/2000/svg">
<path d="M21.4131 3.27112C21.7881 3.64618 21.9987 4.15479 21.9987 4.68512C21.9987 5.21545 21.7881 5.72406 21.4131 6.09912L11.5131 15.9991L21.4131 25.8991C21.7774 26.2763 21.979 26.7815 21.9745 27.3059C21.9699 27.8303 21.7596 28.3319 21.3888 28.7028C21.0179 29.0736 20.5163 29.2839 19.9919 29.2885C19.4675 29.293 18.9623 29.0914 18.5851 28.7271L7.27112 17.4131C6.89618 17.0381 6.68555 16.5294 6.68555 15.9991C6.68555 15.4688 6.89618 14.9602 7.27112 14.5851L18.5851 3.27112C18.9602 2.89618 19.4688 2.68555 19.9991 2.68555C20.5294 2.68555 21.0381 2.89618 21.4131 3.27112Z" fill="#252525"/>
</svg>
