<svg width="22" height="22" viewBox="0 0 22 22" fill="none" xmlns="http://www.w3.org/2000/svg">
<path d="M10.9989 18.8749C12.0517 18.875 13.0938 18.664 14.0636 18.2543C15.0334 17.8447 15.9112 17.2448 16.6451 16.49C17.3791 15.7353 17.9542 14.8411 18.3366 13.8602C18.719 12.8793 18.9008 11.8318 18.8713 10.7794C17.77 11.546 16.4474 11.9297 15.1068 11.8715C13.7662 11.8134 12.4818 11.3166 11.451 10.4575C10.4202 9.59845 9.70001 8.42466 9.40113 7.11651C9.10226 5.80837 9.24123 4.43828 9.7967 3.2168C7.83515 3.51908 6.06006 4.55088 4.82661 6.10576C3.59315 7.66063 2.99228 9.62392 3.14422 11.6028C3.29616 13.5817 4.1897 15.4302 5.64608 16.7786C7.10245 18.1269 9.01424 18.8756 10.9989 18.8749Z" stroke="white" stroke-width="1.5" stroke-linecap="round" stroke-linejoin="round"/>
</svg>
