<svg width="17" height="17" viewBox="0 0 17 17" fill="none" xmlns="http://www.w3.org/2000/svg">
<path d="M7.61111 15.6111C7.61111 15.8469 7.70476 16.073 7.87146 16.2397C8.03816 16.4064 8.26425 16.5 8.5 16.5C8.73575 16.5 8.96184 16.4064 9.12854 16.2397C9.29524 16.073 9.38889 15.8469 9.38889 15.6111V9.38889H15.6111C15.8469 9.38889 16.073 9.29524 16.2397 9.12854C16.4064 8.96184 16.5 8.73575 16.5 8.5C16.5 8.26425 16.4064 8.03816 16.2397 7.87146C16.073 7.70476 15.8469 7.61111 15.6111 7.61111H9.38889V1.38889C9.38889 1.15314 9.29524 0.927048 9.12854 0.760349C8.96184 0.59365 8.73575 0.5 8.5 0.5C8.26425 0.5 8.03816 0.59365 7.87146 0.760349C7.70476 0.927048 7.61111 1.15314 7.61111 1.38889V7.61111H1.38889C1.15314 7.61111 0.927048 7.70476 0.760349 7.87146C0.59365 8.03816 0.5 8.26425 0.5 8.5C0.5 8.73575 0.59365 8.96184 0.760349 9.12854C0.927048 9.29524 1.15314 9.38889 1.38889 9.38889H7.61111V15.6111Z" fill="white"/>
</svg>
